<svg xmlns="http://www.w3.org/2000/svg" viewBox="0 0 170.19 193.6"><defs><style>.cls-1{font-size:22.59px;font-family:OpenSans, OpenSans;}.cls-1,.cls-2,.cls-3,.cls-4{fill:#FFE433;}.cls-3,.cls-4{font-size:29.94px;font-family:OpenSans-Bold, OpenSans Bold;font-weight:700;}.cls-4{letter-spacing:0em;}.cls-5{letter-spacing:0em;}</style></defs><title>Ativo 2</title><g id="Camada_2" data-name="Camada 2"><g id="Camada_1-2" data-name="Camada 1"><text class="cls-1" transform="translate(0 187.95)">Sul-rio-grandense</text><rect class="cls-2" x="83.43" y="1.08" width="21.5" height="21.5" rx="2.09" ry="2.09"/><rect class="cls-2" x="109.22" y="1.08" width="21.5" height="21.5" rx="2.09" ry="2.09"/><rect class="cls-2" x="109.22" y="52.66" width="21.5" height="21.5" rx="2.09" ry="2.09"/><rect class="cls-2" x="57.63" y="26.85" width="21.49" height="21.5" rx="2.09" ry="2.09"/><rect class="cls-2" x="83.43" y="26.85" width="21.5" height="21.5" rx="2.09" ry="2.09"/><rect class="cls-2" x="57.63" y="52.66" width="21.49" height="21.5" rx="2.09" ry="2.09"/><rect class="cls-2" x="83.43" y="52.66" width="21.5" height="21.5" rx="2.09" ry="2.09"/><rect class="cls-2" x="57.63" y="78.49" width="21.49" height="21.49" rx="2.09" ry="2.09"/><rect class="cls-2" x="83.43" y="78.49" width="21.5" height="21.49" rx="2.09" ry="2.09"/><rect class="cls-2" x="83.43" y="1.08" width="21.5" height="21.5" rx="2.09" ry="2.09"/><rect class="cls-2" x="109.22" y="1.08" width="21.5" height="21.5" rx="2.09" ry="2.09"/><rect class="cls-2" x="109.22" y="52.66" width="21.5" height="21.5" rx="2.09" ry="2.09"/><rect class="cls-2" x="57.63" y="26.85" width="21.49" height="21.5" rx="2.09" ry="2.09"/><rect class="cls-2" x="83.43" y="26.85" width="21.5" height="21.5" rx="2.09" ry="2.09"/><rect class="cls-2" x="57.63" y="52.66" width="21.49" height="21.5" rx="2.09" ry="2.09"/><rect class="cls-2" x="83.43" y="52.66" width="21.5" height="21.5" rx="2.09" ry="2.09"/><rect class="cls-2" x="57.63" y="78.49" width="21.49" height="21.49" rx="2.09" ry="2.09"/><rect class="cls-2" x="83.43" y="78.49" width="21.5" height="21.49" rx="2.09" ry="2.09"/><rect class="cls-2" x="57.64" y="26.85" width="21.49" height="21.5" rx="2.09" ry="2.09"/><rect class="cls-2" x="57.64" y="52.66" width="21.49" height="21.5" rx="2.09" ry="2.09"/><rect class="cls-2" x="57.64" y="78.49" width="21.49" height="21.49" rx="2.09" ry="2.09"/><rect class="cls-2" x="109.22" y="1.08" width="21.5" height="21.5" rx="2.09" ry="2.09"/><rect class="cls-2" x="109.22" y="52.66" width="21.5" height="21.5" rx="2.09" ry="2.09"/><rect class="cls-2" x="83.43" y="1.08" width="21.48" height="21.48" rx="2.09" ry="2.09"/><rect class="cls-2" x="109.21" y="1.08" width="21.48" height="21.48" rx="2.09" ry="2.09"/><rect class="cls-2" x="109.21" y="52.63" width="21.48" height="21.48" rx="2.09" ry="2.09"/><rect class="cls-2" x="57.66" y="26.84" width="21.48" height="21.48" rx="2.09" ry="2.09"/><rect class="cls-2" x="83.43" y="26.84" width="21.48" height="21.48" rx="2.09" ry="2.09"/><rect class="cls-2" x="57.66" y="52.63" width="21.48" height="21.48" rx="2.09" ry="2.09"/><rect class="cls-2" x="83.43" y="52.63" width="21.48" height="21.48" rx="2.09" ry="2.09"/><rect class="cls-2" x="57.66" y="78.44" width="21.48" height="21.48" rx="2.09" ry="2.09"/><rect class="cls-2" x="83.43" y="78.44" width="21.48" height="21.48" rx="2.09" ry="2.09"/><path class="cls-2" d="M80.21,11.82A11.82,11.82,0,1,1,68.4,0,11.81,11.81,0,0,1,80.21,11.82"/><text class="cls-3" transform="translate(13.67 136.32)">I</text><text class="cls-4" transform="translate(23.62 136.32)">N<tspan class="cls-5" x="19.76" y="0">S</tspan></text><text class="cls-3" transform="translate(64.65 136.32)">TIT</text><text class="cls-3" transform="translate(109.4 136.32)">U</text><text class="cls-3" transform="translate(132.13 136.32)">T</text><text class="cls-3" transform="translate(149.53 136.32)">O</text><text class="cls-3" transform="translate(28.57 162.01)">F</text><text class="cls-3" transform="translate(45.1 162.01)">EDER</text><text class="cls-3" transform="translate(120.79 162.01)">A</text><text class="cls-3" transform="translate(141.55 162.01)">L</text></g></g></svg>