<svg xmlns="http://www.w3.org/2000/svg" viewBox="0 0 272.38 68.94"><defs><style>.cls-1{fill:#ffe433;}</style></defs><title>Ativo 15</title><g id="Camada_2" data-name="Camada 2"><g id="Camada_1-2" data-name="Camada 1"><path class="cls-1" d="M64.95,49.3a35.36,35.36,0,0,0,3.39-14.5c0-7.6-1.87-14.33-6.07-20-1.83,1.77-10,8.43-11.8,29.47,0,0-5.54.11-7.36,0-3.16-28.56-24.23-34.2-32.69-34.2A34.42,34.42,0,0,0,0,35.08,34.17,34.17,0,0,0,3.5,49.3Z"/><path class="cls-1" d="M47.55,32.16c.42-.62,3.19-15.29,10.82-21.58C51.86,4.4,43,0,33.26,0,28.21,0,23.4,1.87,19,3.71c6.42,1.8,23.75,9.78,28.52,28.46"/><path class="cls-1" d="M6.52,55.13a34.58,34.58,0,0,0,55.3,0Z"/><path class="cls-1" d="M272.37,27.66c-.22-5.38-5-9.68-10.83-9.68a11.32,11.32,0,0,0-6.59,2.09A11.32,11.32,0,0,0,248.36,18c-5.73,0-10.41,4.14-10.81,9.37a16.07,16.07,0,0,0-29.45.55A16,16,0,0,0,204.95,23V9.28h-4.3V19.79a16,16,0,0,0-21.47,6.58,16.07,16.07,0,0,0-28.84,1.27A16.06,16.06,0,0,0,119.55,34v.08A16.06,16.06,0,0,0,148,44.25l-3.36-2.88a11.64,11.64,0,0,1-20.48-5.18h25a15.52,15.52,0,0,0,1.18,4.26,16.06,16.06,0,0,0,27.12,3.8l-3.35-2.88a11.64,11.64,0,0,1-20.48-5.19h23.75a15.52,15.52,0,0,0,1.81,5.53,16.06,16.06,0,0,0,28.94-1.53,16.06,16.06,0,0,0,29.4.61v8.52h4.3V27.66h0a7.3,7.3,0,0,1,6.7-5.25,6.44,6.44,0,0,1,3.45,1,6.65,6.65,0,0,1,.87.65V49.33h4.3V24.22a5.71,5.71,0,0,1,.9-.73,6.15,6.15,0,0,1,3.44-1.08c3.12,0,5.75,2.43,6.64,5.77V49.33h4.3V28.09a3.32,3.32,0,0,0,0-.42M124.16,31.9a11.64,11.64,0,0,1,22.88,0Zm29.46,0a11.64,11.64,0,0,1,22.88,0Zm39.64,13.79A11.64,11.64,0,1,1,204.91,34a11.64,11.64,0,0,1-11.64,11.64m29.68,0A11.64,11.64,0,1,1,234.58,34a11.65,11.65,0,0,1-11.64,11.64"/><path class="cls-1" d="M111.39,10.09c-4.5,0-8.62.63-11.88,2.61-4.29,2.62-7.06,6.61-7.13,11.11h0V49.39h4.29V36.19h8.67V31.9H96.66V24.83c0-1.93.36-4.78,4.06-7.79l0,0a16.64,16.64,0,0,1,8.83-2.34h2.92V10.12l-1.13,0"/><path class="cls-1" d="M112.62,33a13.18,13.18,0,0,1,3-6.88l.08-.09a14.93,14.93,0,0,1,6.41-3.53V18.06a23.92,23.92,0,0,0-5.4,2,19.14,19.14,0,0,0-4.2,2.89v-4.2h-4.3V49.39h4.3V34.63"/></g></g></svg>