<svg xmlns="http://www.w3.org/2000/svg" viewBox="0 0 156.95 162.63"><defs><style>.cls-1{font-size:18.93px;font-family:OpenSans, Open Sans;}.cls-1,.cls-2,.cls-3,.cls-4{fill:#ffe433;}.cls-3,.cls-4{font-size:25.09px;font-family:OpenSans-Bold, Open Sans;font-weight:700;}.cls-4{letter-spacing:0em;}.cls-5{letter-spacing:0em;}</style></defs><title>Ativo 13</title><g id="Camada_2" data-name="Camada 2"><g id="Camada_1-2" data-name="Camada 1"><text class="cls-1" transform="translate(0 157.5)">Sul-rio-grandense</text><rect class="cls-2" x="69.91" y="0.9" width="18.01" height="18.01" rx="1.75" ry="1.75"/><rect class="cls-2" x="91.53" y="0.9" width="18.01" height="18.01" rx="1.75" ry="1.75"/><rect class="cls-2" x="91.53" y="44.13" width="18.01" height="18.01" rx="1.75" ry="1.75"/><rect class="cls-2" x="48.3" y="22.5" width="18.01" height="18.01" rx="1.75" ry="1.75"/><rect class="cls-2" x="69.91" y="22.5" width="18.01" height="18.01" rx="1.75" ry="1.75"/><rect class="cls-2" x="48.3" y="44.13" width="18.01" height="18.01" rx="1.75" ry="1.75"/><rect class="cls-2" x="69.91" y="44.13" width="18.01" height="18.01" rx="1.75" ry="1.75"/><rect class="cls-2" x="48.3" y="65.77" width="18.01" height="18.01" rx="1.75" ry="1.75"/><rect class="cls-2" x="69.91" y="65.77" width="18.01" height="18.01" rx="1.75" ry="1.75"/><rect class="cls-2" x="69.91" y="0.9" width="18.01" height="18.01" rx="1.75" ry="1.75"/><rect class="cls-2" x="91.53" y="0.9" width="18.01" height="18.01" rx="1.75" ry="1.75"/><rect class="cls-2" x="91.53" y="44.13" width="18.01" height="18.01" rx="1.75" ry="1.75"/><rect class="cls-2" x="48.3" y="22.5" width="18.01" height="18.01" rx="1.75" ry="1.75"/><rect class="cls-2" x="69.91" y="22.5" width="18.01" height="18.01" rx="1.75" ry="1.75"/><rect class="cls-2" x="48.3" y="44.13" width="18.01" height="18.01" rx="1.75" ry="1.75"/><rect class="cls-2" x="69.91" y="44.13" width="18.01" height="18.01" rx="1.75" ry="1.75"/><rect class="cls-2" x="48.3" y="65.77" width="18.01" height="18.01" rx="1.75" ry="1.75"/><rect class="cls-2" x="69.91" y="65.77" width="18.01" height="18.01" rx="1.75" ry="1.75"/><rect class="cls-2" x="48.3" y="22.5" width="18.01" height="18.01" rx="1.75" ry="1.75"/><rect class="cls-2" x="48.3" y="44.13" width="18.01" height="18.01" rx="1.75" ry="1.75"/><rect class="cls-2" x="48.3" y="65.77" width="18.01" height="18.01" rx="1.75" ry="1.75"/><rect class="cls-2" x="91.53" y="0.9" width="18.01" height="18.01" rx="1.75" ry="1.75"/><rect class="cls-2" x="91.53" y="44.13" width="18.01" height="18.01" rx="1.75" ry="1.75"/><rect class="cls-2" x="69.92" y="0.9" width="18" height="18" rx="1.75" ry="1.75"/><rect class="cls-2" x="91.52" y="0.9" width="18" height="18" rx="1.75" ry="1.75"/><rect class="cls-2" x="91.52" y="44.11" width="18" height="18" rx="1.75" ry="1.75"/><rect class="cls-2" x="48.32" y="22.49" width="18" height="18" rx="1.75" ry="1.75"/><rect class="cls-2" x="69.92" y="22.49" width="18" height="18" rx="1.75" ry="1.75"/><rect class="cls-2" x="48.32" y="44.11" width="18" height="18" rx="1.75" ry="1.75"/><rect class="cls-2" x="69.92" y="44.11" width="18" height="18" rx="1.75" ry="1.75"/><rect class="cls-2" x="48.32" y="65.73" width="18" height="18" rx="1.75" ry="1.75"/><rect class="cls-2" x="69.92" y="65.73" width="18" height="18" rx="1.75" ry="1.75"/><path class="cls-2" d="M67.22,9.9A9.9,9.9,0,1,1,57.32,0a9.9,9.9,0,0,1,9.9,9.9"/><text class="cls-3" transform="translate(11.45 114.24)">I</text><text class="cls-4" transform="translate(19.8 114.24)">N<tspan class="cls-5" x="20.45" y="0">S</tspan></text><text class="cls-3" transform="translate(54.18 114.24)">TIT</text><text class="cls-3" transform="translate(91.68 114.24)">U</text><text class="cls-3" transform="translate(110.73 114.24)">T</text><text class="cls-3" transform="translate(125.3 114.24)">O</text><text class="cls-3" transform="translate(23.94 135.77)">F</text><text class="cls-3" transform="translate(37.79 135.77)">EDER</text><text class="cls-3" transform="translate(101.23 135.77)">A</text><text class="cls-3" transform="translate(118.62 135.77)">L</text></g></g></svg>