<svg xmlns="http://www.w3.org/2000/svg" viewBox="0 0 268.78 65.49"><defs><style>.cls-1,.cls-4{fill:#ffe433;}.cls-1{stroke:#232b29;}.cls-1,.cls-3{stroke-miterlimit:10;}.cls-2{fill:#232b29;}.cls-3{fill:none;stroke:#000;}</style></defs><title>Ativo 16</title><g id="Camada_2" data-name="Camada 2"><g id="Camada_1-2" data-name="Camada 1"><path class="cls-1" d="M41.33,2A10.9,10.9,0,0,0,25.84,7.13C24.1,10.21,24,13.28,23,17.41a81.76,81.76,0,0,1-5.11,11.85A81.76,81.76,0,0,1,10.15,39.6c-3.06,2.94-5.67,4.58-7.47,7.63A10.91,10.91,0,1,0,20.33,60.06c3-3.77,2.94-7.21,4.16-12.17A81.76,81.76,0,0,1,29.6,36a81.76,81.76,0,0,1,7.71-10.35C41,22.15,44,20.5,45.77,16A10.91,10.91,0,0,0,41.33,2Z"/><path class="cls-1" d="M71.29,53.95A10.9,10.9,0,0,0,59.08,43.12c-3.54,0-6.26,1.47-10.34,2.65a81.76,81.76,0,0,1-12.82,1.5,81.76,81.76,0,0,1-12.82-1.5c-4.08-1.18-6.8-2.62-10.34-2.65a10.91,10.91,0,1,0-2.28,21.7c4.77.74,7.72-1.06,12.62-2.48a81.76,81.76,0,0,1,12.82-1.5,81.76,81.76,0,0,1,12.82,1.5c4.91,1.42,7.85,3.22,12.62,2.48A10.91,10.91,0,0,0,71.29,53.95Z"/><path class="cls-1" d="M66,63.23a10.9,10.9,0,0,1-15.49-5.16C48.8,55,48.68,51.91,47.67,47.78a81.76,81.76,0,0,0-5.11-11.85,81.76,81.76,0,0,0-7.71-10.35C31.79,22.64,29.18,21,27.38,18A10.91,10.91,0,1,1,45,5.13c3,3.77,2.94,7.21,4.16,12.17A81.76,81.76,0,0,0,54.3,29.15,81.76,81.76,0,0,0,62,39.5c3.69,3.54,6.71,5.19,8.46,9.69A10.91,10.91,0,0,1,66,63.23Z"/><circle class="cls-2" cx="60.38" cy="53.45" r="6.58"/><circle class="cls-2" cx="11.47" cy="53.45" r="6.58"/><path class="cls-3" d="M60.38,53.45"/><path class="cls-3" d="M32.69,9.16"/><path class="cls-3" d="M59.68,55.45"/><path class="cls-1" d="M33.36,30.57c1.35-1.79,2.49-3.16,3.15-3.94l.8-.94c3.58-4.17,7.19-6.95,8.46-9.69A10.91,10.91,0,0,0,26.42,6a11,11,0,0,0-.58,1.17C24.1,10.21,24,13.28,23,17.41c-1,2.9-2,5.42-3,7.65"/><circle class="cls-2" cx="35.87" cy="11.41" r="6.58" transform="translate(8.05 36.77) rotate(-60)"/><path class="cls-4" d="M109.85,41.32a17.12,17.12,0,0,1-5.6,4.47A15.93,15.93,0,0,1,97,47.44a16.68,16.68,0,0,1-11.65-4.66,15.93,15.93,0,0,1-3.5-5.06,15.92,15.92,0,0,1,0-12.51,16,16,0,0,1,8.73-8.49A16.78,16.78,0,0,1,97,15.49a15.93,15.93,0,0,1,7.26,1.66,16.79,16.79,0,0,1,5.48,4.31l-4.12,4.23a10.83,10.83,0,0,0-3.68-3.29,10.39,10.39,0,0,0-9-.42,10.84,10.84,0,0,0-3.33,2.23,10.56,10.56,0,0,0-2.25,3.27,9.72,9.72,0,0,0-.83,4,9.62,9.62,0,0,0,.83,3.95,10.55,10.55,0,0,0,2.25,3.27,10.81,10.81,0,0,0,3.33,2.23,10.07,10.07,0,0,0,4.06.83,9.76,9.76,0,0,0,5-1.29A11.46,11.46,0,0,0,105.69,37Z"/><path class="cls-4" d="M132.41,24.57,122.4,51a9,9,0,0,1-2.93,4.27,7.16,7.16,0,0,1-4.31,1.31,6.94,6.94,0,0,1-.85-.06,6.33,6.33,0,0,1-.89-.17l-1.85-5.16a7.36,7.36,0,0,0,1.35.48,5.41,5.41,0,0,0,1.31.17,4.84,4.84,0,0,0,2.39-.6,3.87,3.87,0,0,0,1.66-2.21l.77-2.23-8.58-22.25h6l5.12,14.32,4.81-14.32Z"/><path class="cls-4" d="M157.27,26.42a10.14,10.14,0,0,1-.83,4.1,10.44,10.44,0,0,1-2.26,3.31A10.26,10.26,0,0,1,150.83,36a10.7,10.7,0,0,1-4.09.79h-5.09v10h-6V16.1h11.07a10.7,10.7,0,0,1,4.09.79,10.44,10.44,0,0,1,3.35,2.17,10.28,10.28,0,0,1,2.26,3.27A10,10,0,0,1,157.27,26.42Zm-6-.08a5.68,5.68,0,0,0-1.66-4,6,6,0,0,0-1.81-1.23,5.43,5.43,0,0,0-2.23-.46h-4V32.23h4a5.24,5.24,0,0,0,2.23-.48,5.89,5.89,0,0,0,1.81-1.29,6.08,6.08,0,0,0,1.21-1.87A5.78,5.78,0,0,0,151.31,26.34Z"/><path class="cls-4" d="M180.45,46.86H174.9V33.54a5.55,5.55,0,0,0-.37-2.1,4.45,4.45,0,0,0-1-1.5,3.79,3.79,0,0,0-1.39-.89,4.75,4.75,0,0,0-1.64-.29,7.69,7.69,0,0,0-2.44.39,10,10,0,0,0-2.24,1.08V46.86h-5.54V14.95h5.54l0,10.93a8.26,8.26,0,0,1,2.85-1.42,11.33,11.33,0,0,1,3.12-.46,9.54,9.54,0,0,1,3.27.56,7.78,7.78,0,0,1,2.73,1.69,8,8,0,0,1,1.89,2.85,10.81,10.81,0,0,1,.69,4.06Z"/><path class="cls-4" d="M204.89,24.57,194.88,51A9,9,0,0,1,192,55.29a7.16,7.16,0,0,1-4.31,1.31,6.94,6.94,0,0,1-.85-.06,6.33,6.33,0,0,1-.89-.17l-1.85-5.16a7.36,7.36,0,0,0,1.35.48,5.41,5.41,0,0,0,1.31.17,4.84,4.84,0,0,0,2.39-.6,3.87,3.87,0,0,0,1.66-2.21l.77-2.23-8.58-22.25h6l5.12,14.32,4.81-14.32Z"/><path class="cls-4" d="M214.64,24.59H217V44.76h10.51v2.1H214.64Z"/><path class="cls-4" d="M239.3,24.36h.39l9.43,22.5h-2.49l-1.51-3.73H233.87l-1.47,3.73h-2.33Zm5,16.77-3.93-9.92q-.16-.39-.31-.85l-.28-.85q-.13-.46-.26-1-.16.49-.29,1l-.28.85q-.15.46-.31.85l-3.93,9.92Z"/><path class="cls-4" d="M253.39,24.59H261a7.8,7.8,0,0,1,2.72.43,5.21,5.21,0,0,1,1.9,1.18A4.91,4.91,0,0,1,266.7,28a6,6,0,0,1,.38,2.12,5.21,5.21,0,0,1-.72,2.82,3.81,3.81,0,0,1-2.16,1.61,5.68,5.68,0,0,1,4.59,5.82,7.6,7.6,0,0,1-.43,2.57A5.52,5.52,0,0,1,267,45a6.22,6.22,0,0,1-2.21,1.39,8.65,8.65,0,0,1-3.1.51h-8.35Zm7.73,9.14a3.45,3.45,0,0,0,2.77-1,3.79,3.79,0,0,0,.83-2.53,4.43,4.43,0,0,0-.21-1.4,2.83,2.83,0,0,0-.69-1.12,3.2,3.2,0,0,0-1.21-.74,5.45,5.45,0,0,0-1.82-.26h-5v7Zm.46,11a6.27,6.27,0,0,0,2.19-.34,3.9,3.9,0,0,0,1.49-1,3.85,3.85,0,0,0,.85-1.42,5.58,5.58,0,0,0,.28-1.8,4.56,4.56,0,0,0-1.2-3.24,4.92,4.92,0,0,0-3.75-1.28h-5.7v9Z"/></g></g></svg>