<svg xmlns="http://www.w3.org/2000/svg" viewBox="0 0 170.95 170.96"><defs><style>.cls-1{fill:#ffe433;}</style></defs><title>Ativo 11</title><g id="Camada_2" data-name="Camada 2"><g id="Camada_1-2" data-name="Camada 1"><path class="cls-1" d="M26.49,135a1.7,1.7,0,0,0-.24,2.39,1.67,1.67,0,0,0,2.4.08A1.64,1.64,0,1,0,26.49,135"/><path class="cls-1" d="M13.35,112.41,5.49,115.9l1.24,2.83,7.62-3.38c1.41-.62,2.61-.82,3.1.29s-.46,1.88-1.87,2.5L8,121.52l1.26,2.85,7.86-3.49c2.77-1.24,4.45-3.33,3.1-6.39s-4.09-3.3-6.84-2.08"/><polygon class="cls-1" points="16.34 104.88 8.3 107 8.28 106.94 15.57 101.83 14.76 98.63 1.54 101.97 2.18 104.56 10.33 102.44 10.35 102.49 2.95 107.62 3.78 110.91 17.01 107.57 16.34 104.88"/><polygon class="cls-1" points="14.06 92.61 0.51 94.25 0.88 97.33 14.42 95.7 14.06 92.61"/><polygon class="cls-1" points="13.7 83.92 0 80.62 0.06 83.98 10.07 85.77 10.07 85.81 0.11 87.72 0.17 91.21 13.77 87.85 13.7 83.92"/><polygon class="cls-1" points="14.96 71.72 12.23 71.33 11.69 75.17 8.77 74.75 9.24 71.43 6.72 71.07 6.25 74.39 3.6 74.01 4.11 70.4 1.42 70.01 0.5 76.56 14 78.49 14.96 71.72"/><path class="cls-1" d="M9.26,63.34,9,64.22l-3.31-1L6,62.32a1.48,1.48,0,0,1,2.07-1,1.58,1.58,0,0,1,1.23,2.07m7.05,3L11.1,64.83l.26-.87,5.73-.23L18,60.59l-6.5.53c0-.94-.82-2.25-2.77-2.83-2.6-.76-4.37.33-5.11,2.87L2.38,65.38l13.1,3.84Z"/><path class="cls-1" d="M9.95,54.78c2.07,1,3.42.22,4.7-.83,1-.83,1.69-1.22,2.5-.85a1.29,1.29,0,0,1,.7,1.8A3.16,3.16,0,0,1,16,56.47l1.44,2.41a5.56,5.56,0,0,0,3-2.88,4.12,4.12,0,0,0-2.25-5.72c-2.16-1-3.73.08-4.82,1s-1.54,1.14-2.31.79a1.28,1.28,0,0,1-.71-1.82,2.38,2.38,0,0,1,1.51-1.26l-1.4-2.41a4.66,4.66,0,0,0-2.7,2.6,4.08,4.08,0,0,0,2.17,5.64"/><polygon class="cls-1" points="24.67 47.37 12.95 40.35 11.36 43.02 23.08 50.04 24.67 47.37"/><path class="cls-1" d="M19.47,35.63l.47-.59c.92-1.17,2.68-1.11,4.83.57s2.58,3.35,1.66,4.52l-.47.6Zm9.07,6.2c2.4-3.07,1.4-6.12-1.85-8.66s-6.49-2.85-8.9.24l-2.37,3,10.75,8.43Z"/><path class="cls-1" d="M29.2,25.24l.05-.05L34,28.69l-1.7,1.59ZM35,34.48l-1.29-2.21,2.24-2.1L38,31.62l2.36-2.2L28.67,21.67l-2.83,2.64,6.87,12.28Z"/><path class="cls-1" d="M39,17c1.24-.82,2.89-.21,4.41,2.07s1.4,4,.17,4.82l-.62.42-4.58-6.88Zm6,9.15c3.24-2.17,3.24-5.38.95-8.81s-5.27-4.75-8.52-2.57l-3.19,2.14L41.88,28.3Z"/><polygon class="cls-1" points="58.16 19.01 56.99 16.51 53.48 18.16 52.23 15.49 55.26 14.06 54.17 11.75 51.15 13.18 50 10.76 53.3 9.2 52.14 6.73 46.18 9.55 52 21.93 58.16 19.01"/><polygon class="cls-1" points="67.56 15.99 66.2 10.72 69.34 9.91 68.68 7.34 65.52 8.16 64.83 5.46 68.26 4.58 67.56 1.86 61.12 3.53 64.53 16.77 67.56 15.99"/><polygon class="cls-1" points="79.89 13.87 79.54 11.13 75.7 11.62 75.32 8.69 78.65 8.26 78.32 5.73 75 6.16 74.66 3.49 78.27 3.03 77.92 0.33 71.38 1.17 73.13 14.73 79.89 13.87"/><path class="cls-1" d="M85.78,2.78l.75,0C88,2.82,89,4.28,89,7s-1.13,4.07-2.61,4l-.75,0Zm6.29,4.31c.09-4.21-1.6-6.91-5.52-7L82.72,0l-.3,13.68,3.84.09c3.89.08,5.73-2.55,5.81-6.68"/><polygon class="cls-1" points="101.54 12.68 97.73 12.03 98.22 9.11 101.53 9.68 101.96 7.17 98.65 6.6 99.1 3.95 102.69 4.57 103.15 1.88 96.65 0.77 94.35 14.25 101.08 15.4 101.54 12.68"/><path class="cls-1" d="M109.74,6.34l.92.3a1.47,1.47,0,0,1,1,2.1,1.56,1.56,0,0,1-2.09,1.17l-.87-.28ZM108,11.71l.87.28.07,5.75,3.1,1-.34-6.53c.94,0,2.27-.77,2.89-2.7.84-2.59-.2-4.39-2.72-5.2L107.71,3l-4.19,13,2.82.91Z"/><path class="cls-1" d="M122.84,12.11l.07,0-1.67,5.68-2.07-1.07Zm-6.71,8.58,1.64-2,2.72,1.41-.64,2.47,2.86,1.48L126,10.4l-3.45-1.78-9.18,10.65Z"/><polygon class="cls-1" points="129.72 29.08 131.36 26.74 128.39 24.63 134.59 15.79 132.04 13.98 124.18 25.17 129.72 29.08"/><path class="cls-1" d="M144.68,28l.51.55c1,1.09.69,2.83-1.31,4.7s-3.69,2-4.71.95l-.51-.55Zm-7.5,8c2.67,2.85,5.82,2.32,8.82-.5s3.81-6,1.14-8.85l-2.63-2.81-10,9.35Z"/><polygon class="cls-1" points="146.36 47.8 148.63 46.23 146.42 43.03 148.85 41.35 150.76 44.12 152.85 42.67 150.95 39.9 153.15 38.37 155.23 41.38 157.46 39.83 153.71 34.4 142.48 42.17 146.36 47.8"/><path class="cls-1" d="M161,52.15l.39.9a1.5,1.5,0,0,1-1,2.09,1.61,1.61,0,0,1-2.29-.68l-.38-.9Zm-10.15,4.36,4.57-2,.52,1.22c.8,1.87,2.84,3.22,5.65,2a3.92,3.92,0,0,0,2.28-5.54l-1.67-3.91-12.54,5.39Z"/><polygon class="cls-1" points="155.36 70.03 158.01 69.29 156.99 65.55 159.83 64.76 160.72 68 163.17 67.33 162.29 64.08 164.87 63.37 165.83 66.89 168.45 66.16 166.7 59.79 153.55 63.44 155.36 70.03"/><polygon class="cls-1" points="156.77 79.2 159.59 78.8 159.07 75.18 169.76 73.64 169.31 70.53 155.81 72.49 156.77 79.2"/><path class="cls-1" d="M163.76,88c-2.37,0-4.19-.71-4.17-2.11s1.87-2.07,4.24-2.06,4.16.7,4.13,2.1S166.13,88,163.76,88m.12-7.34c-4.34,0-7.26,2-7.32,5.22s2.81,5.27,7.15,5.29,7.19-2,7.24-5.22-2.75-5.27-7.07-5.29"/><polygon class="cls-1" points="167.28 96.35 156.38 94.71 155.93 97.71 166.83 99.35 166.46 101.83 169.05 102.22 170.24 94.25 167.65 93.87 167.28 96.35"/><path class="cls-1" d="M159.25,105.34l5.26,2.71,0,.07-5.88-.53Zm-4.45-2.21,2.24,1.21-.84,3-2.55-.14-.89,3.1,14,.57,1.06-3.73-12.22-6.94Z"/><path class="cls-1" d="M160.85,116c-2.07-.95-3.42-.21-4.71.84-1,.83-1.68,1.22-2.49.86a1.3,1.3,0,0,1-.71-1.79,3.12,3.12,0,0,1,1.84-1.58l-1.44-2.41a5.58,5.58,0,0,0-3,2.9,4.12,4.12,0,0,0,2.28,5.71c2.15,1,3.73-.1,4.8-1s1.54-1.14,2.31-.79a1.28,1.28,0,0,1,.72,1.81,2.38,2.38,0,0,1-1.51,1.26l1.4,2.41a4.7,4.7,0,0,0,2.7-2.61,4.08,4.08,0,0,0-2.19-5.63"/><path class="cls-1" d="M142.06,134.81a1.66,1.66,0,0,0,.24,2.38,1.64,1.64,0,1,0,2.15-2.48,1.64,1.64,0,0,0-2.38.1"/><path class="cls-1" d="M49.55,152.54a1.57,1.57,0,0,1-2.28.72l-.79-.44,1.69-3,.84.47a1.48,1.48,0,0,1,.55,2.26m2.74,1.34c1.33-2.37.66-4.34-1.64-5.64l-3.81-2.15L40.16,158l2.58,1.46,2.66-4.75.79.44-1.07,5.65,2.84,1.6.95-6.47c.92.17,2.38-.3,3.37-2.07"/><path class="cls-1" d="M60.46,152.37A4.06,4.06,0,0,0,55,154.91c-.81,2.13,0,3.44,1.13,4.66.89,1,1.32,1.6,1,2.43a1.3,1.3,0,0,1-1.74.83,3.14,3.14,0,0,1-1.69-1.74l-2.3,1.6a5.56,5.56,0,0,0,3.07,2.83A4.11,4.11,0,0,0,60,162.88c.84-2.22-.34-3.72-1.29-4.75s-1.24-1.47-.93-2.26a1.28,1.28,0,0,1,1.76-.84,2.38,2.38,0,0,1,1.35,1.43l2.31-1.56a4.69,4.69,0,0,0-2.77-2.53"/><rect class="cls-1" x="63.86" y="161.09" width="2.3" height="3.7" transform="translate(-109.11 184.35) rotate(-75.26)"/><path class="cls-1" d="M76.12,160.69A1.38,1.38,0,0,1,74.45,162l-1-.15.41-2.92,1,.14a1.35,1.35,0,0,1,1.27,1.65m-.52,5.45a1.51,1.51,0,0,1-1.83,1.38l-1.15-.17.47-3.29,1.11.16a1.58,1.58,0,0,1,1.41,1.91m-.22-9.61L71.33,156l-1.91,13.55,4.49.63c1.93.28,4.15-.42,4.55-3.3a3.1,3.1,0,0,0-1.68-3.5v0a3.08,3.08,0,0,0,2.1-2.73c.42-2.93-1.82-3.81-3.49-4"/><path class="cls-1" d="M86.28,163.26l-.9,0,0-3.46,1,0c.71,0,1.58.28,1.61,1.68a1.58,1.58,0,0,1-1.62,1.79m4.66-2c0-2.72-1.6-4.09-4.24-4l-4.37.07L82.51,171l3,0-.07-5.45h.91l1.9,5.42,3.26-.06-2.42-6.06c.88-.33,1.91-1.46,1.88-3.49"/><path class="cls-1" d="M98.12,165l.12-5.93h.08l2.1,5.53Zm-2.19-8.54L95,170.52l3-.54.12-2.55,3-.53,1,2.36,3.17-.56L99.74,155.8Z"/><path class="cls-1" d="M110.91,158.49c-1.22-.18-1.88-.34-2.16-1.14a1.28,1.28,0,0,1,.83-1.77,2.35,2.35,0,0,1,2,.24l.79-2.68a4.68,4.68,0,0,0-3.75-.18,4.08,4.08,0,0,0-2.6,5.45c.73,2.16,2.19,2.64,3.83,2.87,1.3.17,2,.39,2.33,1.23a1.3,1.3,0,0,1-.82,1.74,3.13,3.13,0,0,1-2.41-.26l-.76,2.71a5.58,5.58,0,0,0,4.16.22,4.12,4.12,0,0,0,2.61-5.57c-.76-2.25-2.63-2.66-4-2.85"/><polygon class="cls-1" points="113.9 151.28 119.62 163.71 122.43 162.41 116.71 149.98 113.9 151.28"/><polygon class="cls-1" points="127.44 156.44 121.95 147.12 119.27 148.72 126.2 160.49 132.03 157.04 130.58 154.57 127.44 156.44"/><path class="cls-1" d="M106.52,65.39c0-.33,0-.66,0-1a23.17,23.17,0,0,1,.26-3.43l24.79-3a22.35,22.35,0,0,1,.94,6.47c0,.8,0,1.58-.12,2.35Zm24.1,17.43a19.46,19.46,0,0,0,7-1.31H138v4.55H121.28v0l-.09,0c4-2.67,8.79-8.94,9.75-10.63a22.54,22.54,0,0,0,2.75-11c0-10.21-6.26-18.47-14-18.47h-.5c-7.73,0-14,8.27-14,18.47a22.57,22.57,0,0,0,2.75,11c.95,1.69,5.71,8,9.74,10.63l-.09,0v0H100.93V81.51h.34a19.5,19.5,0,0,0,7,1.31,19.13,19.13,0,0,0,2.68-.19c-5.74-4.29-10.63-11.53-10.63-18a26,26,0,0,1,.25-3.57C102,51,109.48,43.83,119.42,43.8h.07c9.94,0,17.41,7.16,18.83,17.29a25.8,25.8,0,0,1,.26,3.57c0,6.44-4.89,13.67-10.63,18a19.12,19.12,0,0,0,2.67.19m-7.39,14.25a37.84,37.84,0,0,1-12.57,26.33,10.34,10.34,0,0,1-5.71-3.83l-1-1.33-1,1.33a10.35,10.35,0,0,1-16.63,0l-1-1.33-1,1.33a10.35,10.35,0,0,1-16.62,0l-1-1.33-1,1.33A10.29,10.29,0,0,1,60,123.38,37.87,37.87,0,0,1,47.44,97.07ZM60.29,86H56.48l3-4L58,76.44H45.88L44.36,82l3,4H31.93a20.3,20.3,0,0,0,8-9.21l12-34.8,12,34.81A20.33,20.33,0,0,0,72,86H60.29ZM75,71.27V74l-7.19,6.71a18.51,18.51,0,0,1-2-3ZM76,62.45a22,22,0,0,0-.13,2.29v0l-14.54.76-1.76-5.1Zm14.76,15a139.87,139.87,0,0,0-2.54,18.38H82.42a141.41,141.41,0,0,0-2.54-18.38ZM78.25,74.11H92.42v2.32H78.25Zm-2-3.75H94.44v2.73H76.23Zm1.59-10.74h0a20.23,20.23,0,0,1,4.26-8.08,2.06,2.06,0,0,0-.32,1.11,2.11,2.11,0,0,0,1,1.77,20.3,20.3,0,0,0,2-4.06c.06-.17.12-.35.18-.53s.21-.65.31-1A19.89,19.89,0,0,0,86,44.51l0,0a20.14,20.14,0,0,1,4,9.14l0,0A20.53,20.53,0,0,1,90.33,57c0,.38,0,.75,0,1.13a20.48,20.48,0,0,1-.6,3.9,2.1,2.1,0,0,0,3.13-1.83s0-.07,0-.11a20.29,20.29,0,0,1-.09,9.72H89.08a15.09,15.09,0,0,0,1.63-4.47c.05-.33.1-.64.14-.93a11.11,11.11,0,0,1-2.75,3.06l-.05.14a.23.23,0,0,1,0-.09,15.53,15.53,0,0,1-.16-2.18,32.25,32.25,0,0,1,.38-3.43,15.66,15.66,0,0,0,.25-2.68,15.06,15.06,0,0,0-2.19-7.81,15.39,15.39,0,0,1-3.87,9.28,14.7,14.7,0,0,1-1-1.66,15.12,15.12,0,0,0-1,3.52h0a1,1,0,0,1,0,.12c0,.09,0,.17,0,.26h0a14.77,14.77,0,0,0-.15,2,15.07,15.07,0,0,0,.83,4.91H77.8a20.28,20.28,0,0,1,0-10.19m25.74,17.16a32.71,32.71,0,0,0,4.2,4.77,18.35,18.35,0,0,1-4.92-.84L95.7,74.05V71.27Zm-4.3-14.9a27.09,27.09,0,0,0-.16,2.76c0,.12,0,.24,0,.36l-4.5-.23v0a22.1,22.1,0,0,0-.13-2.27Zm48.29,5.66-7.9-.42a16,16,0,0,0,.21-2.48,26.8,26.8,0,0,0-.27-3.75,25.14,25.14,0,0,0-.86-3.86l4.48-.55a65,65,0,0,0-27.85-28.32L91.57,56.54a22.42,22.42,0,0,0-.27-3l0-.29,0,0c-.07-.38-.15-.75-.24-1.13l14.32-28.11a65,65,0,0,0-40,0l14.5,28.44a21.46,21.46,0,0,0-1.75,3L55.28,28.17A65,65,0,0,0,27.45,56.49l17.41,2.13-2.73,7.92-19,1a65,65,0,0,0,1.06,39.3L56,84.54l-.56.74-1.51,2h6.83l-9.16,8.55H46.09l.07,1.31q.09,1.75.33,3.46L28.79,117.11a65.22,65.22,0,0,0,3.89,6.12,11.59,11.59,0,0,0,15.39-2.94,11.61,11.61,0,0,0,18.63,0,11.6,11.6,0,0,0,18.62,0,11.61,11.61,0,0,0,18.64,0,11.61,11.61,0,0,0,18.63,0A11.58,11.58,0,0,0,138,123.24a64.73,64.73,0,0,0,3.91-6.13l-17.71-16.51c.16-1.14.28-2.29.33-3.46l.07-1.31h-5.52l-9.14-8.53h8.69l27.89,19.53a65,65,0,0,0,1.05-39.3"/><path class="cls-1" d="M84.53,147h1.62v.76H84.53Zm-.71-2.32h3v.66l-.71.65H84.53l-.71-.65Zm-1.52-2.78h6.07v1.77H82.3Zm3-5.51,1.53,1.76v2.72h-3l0-2.72Zm38.94.89a11.67,11.67,0,0,1-1.67-1.8,11.61,11.61,0,0,1-18.63,0,11.62,11.62,0,0,1-18.64,0,11.61,11.61,0,0,1-18.62,0,11.6,11.6,0,0,1-18.63,0,11.59,11.59,0,0,1-1.68,1.8,64.72,64.72,0,0,0,77.87,0"/><path class="cls-1" d="M122.58,125.37a11.6,11.6,0,0,1-18.63,0,11.61,11.61,0,0,1-18.64,0,11.6,11.6,0,0,1-18.62,0,11.61,11.61,0,0,1-18.63,0A11.6,11.6,0,0,1,38.76,130l-.5,0q2.16,2.28,4.53,4.36a11.69,11.69,0,0,0,5.27-3.95,11.61,11.61,0,0,0,18.63,0,11.6,11.6,0,0,0,18.62,0,11.61,11.61,0,0,0,18.64,0,11.6,11.6,0,0,0,18.63,0,11.72,11.72,0,0,0,5.27,3.95q2.37-2.08,4.54-4.36l-.51,0a11.6,11.6,0,0,1-9.3-4.67"/><path class="cls-1" d="M54.19,65.91l-4.61.24L51.2,59.4l1.49.18ZM46.84,72.4H57L51.94,51Z"/></g></g></svg>