<svg xmlns="http://www.w3.org/2000/svg" viewBox="0 0 204 204.01"><defs><style>.cls-1{fill:#FFE433;}</style></defs><title>Ativo 1</title><g id="Camada_2" data-name="Camada 2"><g id="Camada_1-2" data-name="Camada 1"><path class="cls-1" d="M31.62,161.14a2,2,0,0,0-.29,2.86,2,2,0,0,0,2.87.09,2,2,0,1,0-2.58-3"/><path class="cls-1" d="M15.93,134.14l-9.37,4.17L8,141.68l9.09-4c1.68-.74,3.11-1,3.7.35s-.55,2.24-2.23,3l-9.08,4L11,148.4l9.37-4.16c3.31-1.47,5.32-4,3.71-7.62s-4.89-3.94-8.17-2.48"/><polygon class="cls-1" points="19.49 125.16 9.9 127.69 9.88 127.61 18.59 121.52 17.62 117.69 1.83 121.68 2.6 124.78 12.33 122.24 12.35 122.3 3.52 128.42 4.51 132.36 20.3 128.37 19.49 125.16"/><polygon class="cls-1" points="16.77 110.51 0.6 112.46 1.04 116.15 17.21 114.2 16.77 110.51"/><polygon class="cls-1" points="16.35 100.15 0 96.21 0.07 100.22 12.02 102.36 12.02 102.4 0.13 104.67 0.2 108.84 16.43 104.83 16.35 100.15"/><polygon class="cls-1" points="17.86 85.58 14.6 85.11 13.95 89.7 10.46 89.2 11.03 85.24 8.02 84.81 7.46 88.78 4.29 88.32 4.9 84.01 1.7 83.55 0.59 91.36 16.71 93.66 17.86 85.58"/><path class="cls-1" d="M11.05,75.59l-.3,1L6.8,75.47l.32-1.1a1.76,1.76,0,0,1,2.47-1.25,1.88,1.88,0,0,1,1.46,2.47m8.42,3.6-6.23-1.83.31-1,6.84-.27,1.09-3.74-7.76.63c-.06-1.13-1-2.69-3.31-3.38-3.1-.91-5.22.4-6.1,3.43L2.84,78,18.47,82.6Z"/><path class="cls-1" d="M11.87,65.37c2.47,1.14,4.08.26,5.61-1,1.22-1,2-1.46,3-1a1.54,1.54,0,0,1,.84,2.14,3.76,3.76,0,0,1-2.2,1.87l1.71,2.88a6.68,6.68,0,0,0,3.61-3.44A4.92,4.92,0,0,0,21.73,60c-2.57-1.18-4.45.11-5.74,1.16s-1.85,1.36-2.76.94a1.53,1.53,0,0,1-.85-2.17,2.85,2.85,0,0,1,1.8-1.51l-1.67-2.88a5.59,5.59,0,0,0-3.23,3.11,4.88,4.88,0,0,0,2.59,6.73"/><polygon class="cls-1" points="29.44 56.53 15.45 48.15 13.55 51.34 27.54 59.72 29.44 56.53"/><path class="cls-1" d="M23.23,42.52l.56-.71c1.09-1.4,3.2-1.32,5.77.69s3.08,4,2,5.39L31,48.6Zm10.82,7.39c2.87-3.66,1.67-7.3-2.21-10.34s-7.74-3.4-10.62.29L18.4,43.47,31.23,53.53Z"/><path class="cls-1" d="M34.84,30.12l.06-.07,5.68,4.19-2,1.9Zm6.89,11-1.54-2.63L42.86,36l2.52,1.73,2.81-2.63-14-9.25L30.83,29,39,43.66Z"/><path class="cls-1" d="M46.57,20.31c1.48-1,3.46-.26,5.27,2.46s1.67,4.76.2,5.75l-.75.49L45.83,20.8Zm7.22,10.92c3.86-2.59,3.86-6.41,1.13-10.52s-6.29-5.66-10.17-3.06L41,20.2l9,13.57Z"/><polygon class="cls-1" points="69.41 22.68 68.01 19.7 63.82 21.68 62.33 18.48 65.94 16.77 64.65 14.02 61.03 15.73 59.67 12.83 63.6 10.97 62.22 8.03 55.11 11.39 62.05 26.16 69.41 22.68"/><polygon class="cls-1" points="80.63 19.08 79 12.79 82.74 11.82 81.95 8.76 78.19 9.73 77.36 6.52 81.45 5.46 80.63 2.22 72.94 4.21 77.01 20.01 80.63 19.08"/><polygon class="cls-1" points="95.34 16.55 94.92 13.28 90.33 13.87 89.88 10.37 93.85 9.86 93.46 6.84 89.49 7.35 89.09 4.17 93.39 3.62 92.98 0.39 85.18 1.39 87.27 17.58 95.34 16.55"/><path class="cls-1" d="M102.36,3.31l.89,0c1.78,0,3,1.77,2.91,5s-1.35,4.87-3.12,4.83l-.9,0Zm7.5,5.14C110,3.43,108,.2,103.28.1L98.71,0l-.36,16.32,4.58.11c4.64.1,6.83-3,6.93-8"/><polygon class="cls-1" points="121.17 15.13 116.62 14.36 117.21 10.88 121.16 11.55 121.67 8.55 117.72 7.88 118.26 4.72 122.55 5.45 123.09 2.25 115.34 0.92 112.59 17.01 120.62 18.38 121.17 15.13"/><path class="cls-1" d="M131,7.56l1.1.36a1.76,1.76,0,0,1,1.17,2.51,1.87,1.87,0,0,1-2.5,1.4l-1-.34ZM128.9,14l1,.34.09,6.86,3.69,1.2-.41-7.8c1.12,0,2.71-.91,3.45-3.22,1-3.09-.24-5.24-3.24-6.21l-5-1.61-5,15.55,3.37,1.08Z"/><path class="cls-1" d="M146.58,14.45l.08,0-2,6.78L142.2,20Zm-8,10.23,2-2.34L143.77,24,143,27l3.42,1.76,3.94-16.32-4.11-2.12L135.3,23Z"/><polygon class="cls-1" points="154.8 34.7 156.76 31.91 153.21 29.4 160.61 18.84 157.57 16.69 148.19 30.04 154.8 34.7"/><path class="cls-1" d="M172.64,33.41l.62.66c1.21,1.3.82,3.37-1.57,5.61s-4.4,2.43-5.62,1.13l-.61-.66ZM163.69,43c3.18,3.4,6.95,2.77,10.53-.6s4.55-7.14,1.36-10.56l-3.13-3.35L160.56,39.63Z"/><polygon class="cls-1" points="174.65 57.04 177.37 55.16 174.73 51.35 177.63 49.34 179.9 52.65 182.4 50.92 180.13 47.62 182.75 45.79 185.24 49.38 187.9 47.53 183.43 41.05 170.02 50.32 174.65 57.04"/><path class="cls-1" d="M192.12,62.24l.46,1.08a1.8,1.8,0,0,1-1.18,2.49,1.92,1.92,0,0,1-2.74-.81l-.45-1.08ZM180,67.44l5.45-2.34.62,1.46c.95,2.23,3.39,3.84,6.74,2.4,3.57-1.53,3.64-4.47,2.72-6.61l-2-4.67-15,6.44Z"/><polygon class="cls-1" points="185.4 83.57 188.56 82.69 187.33 78.22 190.73 77.28 191.79 81.15 194.71 80.34 193.66 76.47 196.74 75.62 197.89 79.82 201.02 78.95 198.93 71.35 183.23 75.7 185.4 83.57"/><polygon class="cls-1" points="187.07 94.51 190.44 94.03 189.83 89.71 202.57 87.87 202.05 84.17 185.93 86.5 187.07 94.51"/><path class="cls-1" d="M195.42,105c-2.83,0-5-.86-5-2.52s2.23-2.47,5.05-2.46,5,.83,4.93,2.5-2.18,2.49-5,2.48m.14-8.76c-5.18,0-8.66,2.35-8.73,6.23s3.35,6.29,8.53,6.31,8.57-2.36,8.64-6.23-3.28-6.29-8.44-6.31"/><polygon class="cls-1" points="199.62 114.98 186.61 113.02 186.07 116.59 199.08 118.56 198.64 121.52 201.74 121.99 203.15 112.48 200.05 112.01 199.62 114.98"/><path class="cls-1" d="M190,125.7l6.27,3.23,0,.09-7-.63Zm-5.31-2.63,2.67,1.45-1,3.53-3-.17-1.06,3.7,16.75.67,1.26-4.45-14.58-8.29Z"/><path class="cls-1" d="M192,138.42c-2.48-1.13-4.08-.24-5.62,1-1.21,1-2,1.46-3,1a1.54,1.54,0,0,1-.85-2.13,3.73,3.73,0,0,1,2.2-1.89L183,133.56a6.6,6.6,0,0,0-3.6,3.46,4.92,4.92,0,0,0,2.72,6.81c2.57,1.18,4.45-.12,5.73-1.18s1.84-1.36,2.76-.94a1.54,1.54,0,0,1,.87,2.17,2.88,2.88,0,0,1-1.8,1.51l1.67,2.87a5.6,5.6,0,0,0,3.22-3.12,4.89,4.89,0,0,0-2.61-6.72"/><path class="cls-1" d="M169.52,160.87a2,2,0,0,0,.29,2.84,2,2,0,1,0,2.56-3,2,2,0,0,0-2.85.12"/><path class="cls-1" d="M59.12,182a1.86,1.86,0,0,1-2.72.86l-.94-.53,2-3.6,1,.57a1.77,1.77,0,0,1,.65,2.7m3.27,1.59c1.59-2.83.79-5.18-2-6.73l-4.55-2.57-8,14.24L51,190.3l3.18-5.67,1,.53-1.28,6.75,3.39,1.91,1.13-7.72c1.1.19,2.84-.36,4-2.48"/><path class="cls-1" d="M72.14,181.82a4.85,4.85,0,0,0-6.52,3c-1,2.54,0,4.1,1.36,5.55,1.06,1.15,1.58,1.91,1.21,2.9a1.56,1.56,0,0,1-2.08,1,3.78,3.78,0,0,1-2-2.08l-2.74,1.91A6.61,6.61,0,0,0,65,197.51a4.9,4.9,0,0,0,6.62-3.15c1-2.65-.4-4.44-1.54-5.67-1-1.09-1.48-1.75-1.11-2.7a1.53,1.53,0,0,1,2.1-1,2.86,2.86,0,0,1,1.62,1.71l2.75-1.86a5.57,5.57,0,0,0-3.31-3"/><rect class="cls-1" x="76.2" y="192.23" width="2.75" height="4.42" transform="translate(-130.2 219.98) rotate(-75.26)"/><path class="cls-1" d="M90.83,191.76a1.64,1.64,0,0,1-2,1.53l-1.25-.17.49-3.49,1.23.16a1.6,1.6,0,0,1,1.51,2m-.62,6.5A1.8,1.8,0,0,1,88,199.91l-1.37-.2.56-3.92,1.32.19a1.88,1.88,0,0,1,1.67,2.28M90,186.79l-4.84-.68-2.28,16.17,5.35.75c2.31.33,5-.5,5.44-3.93a3.72,3.72,0,0,0-2-4.18v0a3.65,3.65,0,0,0,2.51-3.25c.49-3.5-2.17-4.55-4.17-4.83"/><path class="cls-1" d="M103,194.83l-1.07,0-.06-4.13,1.15,0c.85,0,1.89.34,1.92,2a1.89,1.89,0,0,1-1.94,2.13m5.57-2.4c0-3.25-1.91-4.88-5.06-4.83l-5.21.09L98.46,204,102,204l-.08-6.5,1.08,0,2.27,6.47,3.88-.07-2.88-7.24c1.06-.39,2.28-1.74,2.25-4.16"/><path class="cls-1" d="M117.09,196.9l.15-7.07h.09l2.5,6.6Zm-2.62-10.19-1.06,16.77,3.62-.64.15-3.05,3.6-.63L122,202l3.79-.67L119,185.91Z"/><path class="cls-1" d="M132.35,189.13c-1.46-.21-2.25-.4-2.58-1.36a1.53,1.53,0,0,1,1-2.11,2.77,2.77,0,0,1,2.33.28l.94-3.2a5.59,5.59,0,0,0-4.47-.21,4.87,4.87,0,0,0-3.1,6.5c.86,2.58,2.61,3.16,4.57,3.42,1.55.21,2.44.47,2.78,1.47a1.54,1.54,0,0,1-1,2.08,3.72,3.72,0,0,1-2.87-.31l-.91,3.23a6.65,6.65,0,0,0,5,.26,4.92,4.92,0,0,0,3.11-6.65c-.9-2.68-3.14-3.17-4.78-3.4"/><polygon class="cls-1" points="135.92 180.53 142.74 195.35 146.1 193.8 139.28 178.98 135.92 180.53"/><polygon class="cls-1" points="152.08 186.68 145.53 175.57 142.33 177.47 150.6 191.51 157.55 187.4 155.82 184.45 152.08 186.68"/><path class="cls-1" d="M127.11,78c0-.39,0-.79,0-1.19a27.33,27.33,0,0,1,.31-4.09L157,69.12a26.72,26.72,0,0,1,1.12,7.72c0,1-.06,1.88-.15,2.8Zm28.75,20.8a23.28,23.28,0,0,0,8.38-1.56h.4v5.43H144.72v0l-.1,0C149.43,99.49,155.11,92,156.25,90a26.92,26.92,0,0,0,3.28-13.13c0-12.18-7.47-22-16.68-22h-.6c-9.23,0-16.69,9.86-16.69,22A27,27,0,0,0,128.84,90c1.14,2,6.81,9.5,11.63,12.69l-.1,0v0H120.45V97.27h.4a23.28,23.28,0,0,0,8.38,1.56,22.39,22.39,0,0,0,3.19-.23c-6.85-5.12-12.68-13.75-12.68-21.44a31.18,31.18,0,0,1,.3-4.26c1.7-12.09,10.6-20.6,22.46-20.63h.08c11.87,0,20.77,8.54,22.47,20.63a31.17,31.17,0,0,1,.31,4.26c0,7.69-5.84,16.32-12.69,21.44a22.49,22.49,0,0,0,3.19.23m-8.81,17a45.16,45.16,0,0,1-15,31.42,12.36,12.36,0,0,1-6.81-4.58L124,141.1l-1.19,1.58a12.35,12.35,0,0,1-19.85,0l-1.19-1.58-1.19,1.58a12.36,12.36,0,0,1-19.84,0l-1.19-1.58-1.2,1.58a12.23,12.23,0,0,1-6.81,4.58,45.15,45.15,0,0,1-15-31.39ZM71.94,102.67H67.4L71,97.86l-1.81-6.64H54.75l-1.81,6.64,3.61,4.81H38.11a24.26,24.26,0,0,0,9.55-11L62,50.15,76.3,91.69a24.32,24.32,0,0,0,9.56,11H71.94ZM89.46,85.05v3.31l-8.57,8a22.23,22.23,0,0,1-2.43-3.62Zm1.27-10.52c-.09.9-.15,1.82-.15,2.73v0l-17.36.91-2.1-6.09Zm17.61,17.9a167.12,167.12,0,0,0-3,21.92h-7a167.12,167.12,0,0,0-3-21.92Zm-15-4h16.91v2.77H93.38ZM91,84H112.7v3.26H91Zm1.9-12.82h0A24.11,24.11,0,0,1,98,61.5a2.38,2.38,0,0,0-.39,1.32,2.52,2.52,0,0,0,1.15,2.11,24.4,24.4,0,0,0,2.44-4.84c.07-.21.14-.42.22-.64.13-.38.25-.78.36-1.17a23.7,23.7,0,0,0,.88-5.16l0,0a24.1,24.1,0,0,1,4.78,10.91l0,0a25.18,25.18,0,0,1,.32,3.92c0,.46,0,.9,0,1.35A24.37,24.37,0,0,1,107,74a2.46,2.46,0,0,0,1.21.33,2.52,2.52,0,0,0,2.52-2.52s0-.08,0-.13a24.25,24.25,0,0,1-.11,11.6h-4.34A17.92,17.92,0,0,0,108.25,78c.07-.4.12-.76.17-1.11a13.18,13.18,0,0,1-3.28,3.66,1.38,1.38,0,0,1-.06.16.34.34,0,0,1,0-.1,18.64,18.64,0,0,1-.19-2.61,38.32,38.32,0,0,1,.46-4.1,18.55,18.55,0,0,0,.3-3.19A17.93,17.93,0,0,0,103,61.36,18.36,18.36,0,0,1,98.4,72.43a17.9,17.9,0,0,1-1.19-2,17.94,17.94,0,0,0-1.2,4.2h0s0,.1,0,.14,0,.21,0,.31h0a17,17,0,0,0,.81,8.2H92.84a24.24,24.24,0,0,1,0-12.16m30.72,20.48a38.35,38.35,0,0,0,5,5.7,22.16,22.16,0,0,1-5.88-1l-8.52-7.95V85.05Zm-5.14-17.77c-.11,1.1-.19,2.2-.19,3.29,0,.14,0,.29,0,.43l-5.37-.28v0c0-.9-.06-1.81-.15-2.71Zm57.63,6.75-9.43-.5a19.6,19.6,0,0,0,.25-3,31.89,31.89,0,0,0-.32-4.47,30.36,30.36,0,0,0-1-4.61l5.35-.65a77.58,77.58,0,0,0-33.24-33.8l-28.4,33.86a28,28,0,0,0-.32-3.64l-.06-.34,0,0c-.08-.45-.18-.9-.28-1.34l17.09-33.55a77.52,77.52,0,0,0-47.7,0L95.27,62.5A25.3,25.3,0,0,0,93.18,66L66,33.62A77.67,77.67,0,0,0,32.75,67.41L53.53,70l-3.26,9.45L27.58,80.6a77.75,77.75,0,0,0,1.26,46.9l38-26.61-.66.88-1.81,2.39h8.15L61.59,114.37H55l.07,1.56c.08,1.39.21,2.77.4,4.12L34.35,139.76A78.93,78.93,0,0,0,39,147.05a13.82,13.82,0,0,0,18.36-3.5,13.85,13.85,0,0,0,22.22,0,13.85,13.85,0,0,0,22.23,0,13.86,13.86,0,0,0,22.24,0,13.85,13.85,0,0,0,22.23,0,13.83,13.83,0,0,0,18.37,3.5,79.33,79.33,0,0,0,4.66-7.31l-21.13-19.71c.19-1.35.33-2.73.4-4.12l.07-1.56h-6.58l-10.9-10.18h10.37l33.28,23.31a77.55,77.55,0,0,0,1.26-46.9"/><path class="cls-1" d="M100.87,175.44h1.93v.91h-1.93Zm-.85-2.77h3.62v.78l-.85.78h-1.92l-.85-.78Zm-1.81-3.32h7.24v2.11H98.21Zm3.6-6.57,1.82,2.1v3.24H100l0-3.24Zm46.47,1.05a14,14,0,0,1-2-2.14,13.87,13.87,0,0,1-22.23,0,13.86,13.86,0,0,1-22.24,0,13.87,13.87,0,0,1-22.23,0,13.84,13.84,0,0,1-22.22,0,13.6,13.6,0,0,1-2,2.15,77.22,77.22,0,0,0,92.92,0"/><path class="cls-1" d="M146.28,149.61a13.85,13.85,0,0,1-22.23,0,13.84,13.84,0,0,1-22.24,0,13.85,13.85,0,0,1-22.23,0,13.85,13.85,0,0,1-22.22,0,13.89,13.89,0,0,1-11.11,5.57l-.59,0c1.71,1.81,3.52,3.55,5.41,5.2a14,14,0,0,0,6.29-4.71,13.84,13.84,0,0,0,22.22,0,13.85,13.85,0,0,0,22.23,0,13.84,13.84,0,0,0,22.24,0,13.85,13.85,0,0,0,22.23,0,14,14,0,0,0,6.29,4.72c1.89-1.66,3.69-3.39,5.42-5.21l-.61,0a13.84,13.84,0,0,1-11.1-5.57"/><path class="cls-1" d="M64.67,78.65l-5.51.29,1.93-8.06,1.79.22ZM55.9,86.39H68.07L62,60.83Z"/></g></g></svg>