<svg xmlns="http://www.w3.org/2000/svg" viewBox="0 0 680 680"><defs><style>.cls-1{fill:#78ce84;}.cls-2{fill:#232b29;}</style></defs><title>Ativo 7</title><g id="Camada_2" data-name="Camada 2"><g id="Camada_1-2" data-name="Camada 1"><circle class="cls-1" cx="340" cy="340" r="340"/><path class="cls-2" d="M203.73,485.09a138.71,138.71,0,0,1,0-277.42c76.21,0,138.9,61.94,138.9,138.9C342.63,423.15,279.94,485.09,203.73,485.09ZM121.9,346.57c0,44.67,37.16,81.84,81.84,81.84s81.09-37.16,81.09-81.84-36.41-82.21-81.09-82.21S121.9,301.9,121.9,346.57Z"/><path class="cls-2" d="M612.54,481.71H531.46l-69.82-75.08-34.91,48.43v26.65H366.66V213.3h60.06v152l104.74-152h73.2l-101,152Z"/></g></g></svg>