<svg xmlns="http://www.w3.org/2000/svg" viewBox="0 0 613.76 543.74"><defs><style>.cls-1{fill:#78ce84;}</style></defs><title>Ativo 9</title><g id="Camada_2" data-name="Camada 2"><g id="Camada_1-2" data-name="Camada 1"><circle class="cls-1" cx="166.6" cy="226.87" r="63.9"/><circle class="cls-1" cx="442.81" cy="226.87" r="63.9"/><path class="cls-1" d="M164.44,16.12c-25.07,63-92.36,94.1-156.59,72.44-15-5-6.51-28.11,8.47-23,51.4,17.32,105-7.46,125.06-57.86C147.23-7,170.3,1.41,164.44,16.12Z"/><path class="cls-1" d="M449.32,16.12c25.07,63,92.37,94.1,156.58,72.44,15-5,6.51-28.11-8.47-23C546,82.83,492.44,58,472.38,7.65,466.53-7,443.46,1.41,449.32,16.12Z"/><path class="cls-1" d="M502.23,543.74H103.45a36.25,36.25,0,0,1,0-72.51H502.23a36.25,36.25,0,0,1,0,72.51Z"/></g></g></svg>