<svg xmlns="http://www.w3.org/2000/svg" viewBox="0 0 527.37 426.39"><defs><style>.cls-1{fill:#78ce84;}</style></defs><title>Ativo 10</title><g id="Camada_2" data-name="Camada 2"><g id="Camada_1-2" data-name="Camada 1"><circle class="cls-1" cx="123.5" cy="124.74" r="63.19"/><circle class="cls-1" cx="396.6" cy="124.74" r="63.19"/><path class="cls-1" d="M.91,92.05C25.13,31.24,90.1,1.18,152.13,22.1c14.47,4.87,6.29,27.14-8.18,22.26C94.31,27.63,42.56,51.56,23.17,100.23c-5.64,14.16-27.92,6-22.26-8.18Z"/><path class="cls-1" d="M527.32,111C521.85,45.76,468.42-1.91,403,.06c-15.27.45-13.91,24.14,1.35,23.68,52.35-1.56,94.9,36.39,99.28,88.6,1.29,15.19,25,13.89,23.69-1.35Z"/><path class="cls-1" d="M270.92,426.39c-75.84,0-136-21.18-159.62-30.92a24.1,24.1,0,1,1,18.39-44.57C164,365,285.53,406.58,411.59,347.35A24.11,24.11,0,1,1,432.09,391C375.58,417.52,320,426.39,270.92,426.39Z"/></g></g></svg>