<svg xmlns="http://www.w3.org/2000/svg" viewBox="0 0 600 508.82"><defs><style>.cls-1{fill:#78ce84;}</style></defs><title>Ativo 6</title><g id="Camada_2" data-name="Camada 2"><g id="Camada_1-2" data-name="Camada 1"><path class="cls-1" d="M599,82.16C573,16.92,503.33-15.33,436.78,7.1,421.25,12.34,430,36.22,445.56,31c53.26-18,108.78,7.73,129.58,59.94,6,15.19,30,6.48,23.88-8.78Z"/><path class="cls-1" d="M1,82.16C27,16.92,96.67-15.33,163.22,7.1,178.74,12.34,170,36.22,154.44,31,101.18,13,45.66,38.72,24.86,90.93c-6,15.19-30,6.48-23.88-8.78Z"/><path class="cls-1" d="M233.92,144.57a70.91,70.91,0,0,0-15.16-14.46c-49.66-35.58-116.48-33-161.88,8.6C45,149.59,62.41,167.46,74.22,156.63,99,133.89,131,125.49,161.16,131.11a54.58,54.58,0,1,0,84,46A52.79,52.79,0,0,0,233.92,144.57Z"/><path class="cls-1" d="M535.87,144.57a70.84,70.84,0,0,0-15.14-14.46c-49.67-35.58-116.48-33-161.9,8.6-11.85,10.87,5.54,28.75,17.35,17.92C401,133.89,433,125.49,463.11,131.11a54.58,54.58,0,1,0,84,46A52.72,52.72,0,0,0,535.87,144.57Z"/><path class="cls-1" d="M266.58,490.74c106.29,45.74,225.12,2.08,276.52-101.59,12-24.2-26.08-41.8-38.06-17.62-41.13,83-135.77,117.76-220.85,81.14C259.43,442,241.72,480,266.58,490.74Z"/></g></g></svg>